<svg width="28" height="29" viewBox="0 0 28 29" fill="none" xmlns="http://www.w3.org/2000/svg">
<g clip-path="url(#clip0_1_626)">
<path d="M14.0016 10.3072C11.5314 10.3072 9.51557 12.3262 9.51557 14.8003C9.51557 17.2745 11.5314 19.2935 14.0016 19.2935C16.4718 19.2935 18.4877 17.2745 18.4877 14.8003C18.4877 12.3262 16.4718 10.3072 14.0016 10.3072ZM27.5016 14.8001C27.5016 12.9395 27.606 11.1488 27.5016 9.29157C27.3973 7.13429 28.0766 3.85794 26.5016 2.28043C24.9233 0.699551 21.6555 1.38333 19.5016 1.27883C17.6439 1.17434 15.856 1.27883 14.0016 1.27883C12.1439 1.27883 10.3559 1.17434 8.50162 1.27883C6.34777 1.38333 3.07664 0.702859 1.50164 2.28037C-0.0767266 3.86124 0.605969 7.13429 0.501643 9.29157C0.397316 11.1522 0.501617 12.9429 0.501617 14.8001C0.501617 16.6574 0.397316 18.5048 0.501643 20.3621C0.605969 22.5193 -0.0733827 25.7427 1.50162 27.3202C3.07998 28.9011 6.34777 28.2173 8.50162 28.3218C10.3593 28.4263 12.1473 28.3218 14.0016 28.3218C15.8593 28.3218 17.6473 28.4263 19.5016 28.3218C21.6555 28.2173 24.9266 28.8977 26.5016 27.3202C28.08 25.7393 27.3973 22.9671 27.5016 20.8099C27.6093 18.9526 27.5016 16.6608 27.5016 14.8001ZM14.0016 21.7137C10.1819 21.7137 7.09922 18.6261 7.09922 14.8003C7.09922 10.9746 10.1819 7.88696 14.0016 7.88696C17.8213 7.88696 20.904 10.9746 20.904 14.8003C20.904 18.6261 17.8213 21.7137 14.0016 21.7137ZM21.1867 9.2184C20.2949 9.2184 19.5747 8.49706 19.5747 7.60382C19.5747 6.71057 20.2949 5.98923 21.1867 5.98923C22.0786 5.98923 22.7987 6.71057 22.7987 7.60382C22.799 7.81592 22.7575 8.026 22.6766 8.22201C22.5957 8.41802 22.4769 8.59611 22.3272 8.74609C22.1774 8.89608 21.9996 9.015 21.8039 9.09604C21.6082 9.17709 21.3985 9.21867 21.1867 9.2184Z" fill="white"/>
</g>
<defs>
<clipPath id="clip0_1_626">
<rect width="28" height="28.0445" fill="white" transform="translate(-0.000244141 0.775146)"/>
</clipPath>
</defs>
</svg>
