<svg width="21" height="21" viewBox="0 0 21 21" fill="none" xmlns="http://www.w3.org/2000/svg">
<path d="M2.09065 6.80239L10.0988 10.8059L18.1069 6.80239C18.0772 6.29212 17.8536 5.8125 17.4818 5.46176C17.11 5.11101 16.6182 4.91568 16.1071 4.91577H4.09042C3.5793 4.91568 3.08748 5.11101 2.7157 5.46176C2.34391 5.8125 2.1203 6.29212 2.09065 6.80239Z" fill="white" fill-opacity="0.8"/>
<path d="M18.1099 9.03949L10.0988 13.045L2.08765 9.03949V14.9297C2.08765 15.4608 2.29865 15.9702 2.67425 16.3458C3.04984 16.7214 3.55925 16.9324 4.09042 16.9324H16.1071C16.6383 16.9324 17.1477 16.7214 17.5233 16.3458C17.8989 15.9702 18.1099 15.4608 18.1099 14.9297V9.03949Z" fill="white" fill-opacity="0.8"/>
</svg>
