<svg width="17" height="17" viewBox="0 0 17 17" fill="none" xmlns="http://www.w3.org/2000/svg">
<path opacity="0.6" fill-rule="evenodd" clip-rule="evenodd" d="M6.93973 2.04403C4.72752 2.04403 2.93417 3.83738 2.93417 6.04959C2.93417 8.26179 4.72752 10.0551 6.93973 10.0551C9.15194 10.0551 10.9453 8.26179 10.9453 6.04959C10.9453 3.83738 9.15194 2.04403 6.93973 2.04403ZM0.931396 6.04959C0.931396 2.73127 3.62142 0.0412521 6.93973 0.0412521C10.258 0.0412521 12.9481 2.73127 12.9481 6.04959C12.9481 7.34722 12.5367 8.54877 11.8373 9.53095L16.6603 14.354C17.0514 14.7451 17.0514 15.3791 16.6603 15.7702C16.2693 16.1612 15.6352 16.1612 15.2441 15.7702L10.4211 10.9471C9.43891 11.6466 8.23736 12.0579 6.93973 12.0579C3.62142 12.0579 0.931396 9.3679 0.931396 6.04959Z" fill="#231F2D"/>
</svg>
