<svg width="20" height="20" viewBox="0 0 20 20" fill="none" xmlns="http://www.w3.org/2000/svg">
<path d="M0.712158 1.64464C0.712158 0.980975 1.25016 0.44297 1.91382 0.44297H4.50086C5.08828 0.44297 5.58961 0.867655 5.68618 1.44708L6.57458 6.77753C6.66131 7.29789 6.39851 7.81396 5.92667 8.04988L4.06632 8.98006C5.40774 12.3134 8.06838 14.9741 11.4017 16.3155L12.3319 14.4551C12.5678 13.9833 13.0839 13.7205 13.6043 13.8072L18.9347 14.6956C19.5141 14.7922 19.9388 15.2935 19.9388 15.8809V18.468C19.9388 19.1316 19.4008 19.6696 18.7372 19.6696H16.3338C7.70622 19.6696 0.712158 12.6756 0.712158 4.04797V1.64464Z" fill="#937DC2"/>
</svg>
