<svg width="21" height="21" viewBox="0 0 21 21" fill="none" xmlns="http://www.w3.org/2000/svg">
<path fill-rule="evenodd" clip-rule="evenodd" d="M10.0988 18.8762C14.5232 18.8762 18.1099 15.2895 18.1099 10.8651C18.1099 6.4407 14.5232 2.854 10.0988 2.854C5.67434 2.854 2.08765 6.4407 2.08765 10.8651C2.08765 15.2895 5.67434 18.8762 10.0988 18.8762ZM11.1001 6.85956C11.1001 6.30651 10.6518 5.85817 10.0988 5.85817C9.54571 5.85817 9.09737 6.30651 9.09737 6.85956V10.8651C9.09737 11.1307 9.20287 11.3854 9.39067 11.5732L12.223 14.4056C12.6141 14.7966 13.2481 14.7966 13.6392 14.4056C14.0303 14.0145 14.0303 13.3804 13.6392 12.9894L11.1001 10.4503V6.85956Z" fill="white" fill-opacity="0.8"/>
</svg>
