<svg width="20" height="21" viewBox="0 0 20 21" fill="none" xmlns="http://www.w3.org/2000/svg">
<path d="M1.60002 0.199951C0.937283 0.199951 0.400024 0.737209 0.400024 1.39995C0.400024 2.06269 0.937283 2.59995 1.60002 2.59995H3.06309L3.42977 4.06664C3.43361 4.0836 3.43782 4.10042 3.44238 4.1171L5.07106 10.6318L3.99997 11.7029C2.48805 13.2148 3.55885 15.8 5.69702 15.8H16C16.6627 15.8 17.2 15.2627 17.2 14.6C17.2 13.9372 16.6627 13.4 16 13.4L5.69702 13.3999L6.89702 12.2H14.8C15.2546 12.2 15.6701 11.9431 15.8733 11.5366L19.4733 4.33661C19.6593 3.96462 19.6395 3.52285 19.4208 3.16907C19.2022 2.81529 18.8159 2.59995 18.4 2.59995H5.53696L5.1642 1.10891C5.03065 0.574708 4.55067 0.199951 4.00002 0.199951H1.60002Z" fill="white"/>
<path d="M17.2 18.8C17.2 19.7941 16.3941 20.5999 15.4 20.5999C14.4059 20.5999 13.6 19.7941 13.6 18.8C13.6 17.8058 14.4059 17 15.4 17C16.3941 17 17.2 17.8058 17.2 18.8Z" fill="white"/>
<path d="M5.80002 20.5999C6.79414 20.5999 7.60002 19.7941 7.60002 18.8C7.60002 17.8058 6.79414 17 5.80002 17C4.80591 17 4.00002 17.8058 4.00002 18.8C4.00002 19.7941 4.80591 20.5999 5.80002 20.5999Z" fill="white"/>
</svg>
