<svg width="17" height="17" viewBox="0 0 17 17" fill="none" xmlns="http://www.w3.org/2000/svg">
<path d="M0.0876465 1.80046C0.0876465 1.24741 0.535984 0.799072 1.08904 0.799072H3.2449C3.73442 0.799072 4.15219 1.15298 4.23266 1.63583L4.973 6.07787C5.04527 6.5115 4.82628 6.94156 4.43307 7.13817L2.88278 7.91331C4.00063 10.6911 6.21783 12.9083 8.99563 14.0262L9.77078 12.4759C9.96738 12.0827 10.3974 11.8637 10.8311 11.9359L15.2731 12.6763C15.756 12.7568 16.1099 13.1745 16.1099 13.664V15.8199C16.1099 16.373 15.6615 16.8213 15.1085 16.8213H13.1057C5.91603 16.8213 0.0876465 10.9929 0.0876465 3.80324V1.80046Z" fill="white" fill-opacity="0.8"/>
</svg>
